<?xml version="1.0" encoding="utf-8"?>
<!-- Generator: Adobe Illustrator 25.3.1, SVG Export Plug-In . SVG Version: 6.00 Build 0)  -->
<svg version="1.1" id="レイヤー_1" xmlns="http://www.w3.org/2000/svg" xmlns:xlink="http://www.w3.org/1999/xlink" x="0px"
	 y="0px" viewBox="0 0 514.5 93" style="enable-background:new 0 0 514.5 93;" xml:space="preserve">
<style type="text/css">
	.st0{fill:none;stroke:#4D4D4D;stroke-width:3;stroke-miterlimit:10;}
	.st1{fill:#4D4D4D;stroke:#4D4D4D;stroke-width:0.5;stroke-miterlimit:10;}
	.st2{fill:#4D4D4D;}
	.st3{fill:#FFD34A;}
</style>
<g>
	<g>
		<g>
			<path class="st0" d="M78.5,81.3l-38,10.1c-1.2,0.2-2.4-0.6-2.6-1.8c0-0.2,0-0.4,0-0.6l1-75c0-1.1,0.6-2,1.6-2.3l38-10.1
				c1.2-0.2,2.3,0.6,2.6,1.8c0,0.2,0,0.4,0,0.6l-1,75C80.1,80,79.5,81,78.5,81.3z"/>
			<path class="st1" d="M48.8,23.7c-2,0-3.7,2.1-3.7,4.8s1.7,4.8,3.7,4.8s3.7-2.1,3.7-4.8S50.8,23.7,48.8,23.7z M48.8,32.3
				c-1.6,0-3-1.7-3-3.8s1.3-3.8,3-3.8s2.9,1.7,2.9,3.8S50.4,32.3,48.8,32.3z"/>
		</g>
		<g>
			<g>
				<circle class="st2" cx="15.4" cy="41.2" r="8.1"/>
				<circle class="st2" cx="83" cy="65.1" r="9"/>
				<circle class="st2" cx="94" cy="31.3" r="7.4"/>
			</g>
			<g>
				<path class="st2" d="M106.3,31.6c4.7,2.8,7.6,6.2,7.9,10.1c0.8,9.4-13.7,18.7-34.5,23.3c-6.1,1.5-12.3,2.5-18.6,3
					c-6.3,0.5-12.6,0.5-18.8,0C21,66.7,5.3,59.8,4.6,50.4c-0.3-3.9,2-7.7,6.2-11.2C3.6,43.7-0.4,48.9,0,54.1
					c1,13,28.5,21.4,61.5,18.8s58.8-15.2,57.8-28.2C118.9,39.5,114.1,34.9,106.3,31.6z"/>
				<path class="st2" d="M30.1,30.9C16,35.7,6.9,42.8,7.5,50.2c0.4,4.7,4.7,8.7,11.6,11.6c-4.1-2.4-6.5-5.3-6.8-8.6
					c-0.6-7.6,10.3-15,26.5-19.2l0.1-5.2C35.8,29.4,32.9,30.1,30.1,30.9z"/>
				<path class="st2" d="M85.9,26.5c-1.6-0.2-3.2-0.3-4.9-0.5l-0.1,5.2c15,2,25.5,7.4,26.1,14.4c0.3,3.3-1.7,6.6-5.3,9.6
					c6.4-4,10-8.6,9.6-13.3C110.7,34.7,100.6,29,85.9,26.5z"/>
			</g>
		</g>
	</g>
	<g>
		<g>
			<g>
				<path class="st2" d="M143.8,83.6v-2.2h10.6l0.2-0.2l1.6,1.2c-0.6,1.9-1.6,3.7-2.9,5.2c-1.3,1.7-3.1,3.1-5.2,3.8l-1.6-1.9
					c3.3-1.4,5.4-3.3,6.4-5.9H143.8z M145.4,80.1v-2.1h8.8V80L145.4,80.1z"/>
				<path class="st2" d="M202.3,84.5c4-1.4,7.6-3.8,10.5-7l2.1,1.7c-1.3,1.4-2.7,2.7-4.3,3.7v8.3H208v-6.8c-1.4,0.9-2.8,1.7-4.3,2.3
					L202.3,84.5z"/>
				<path class="st2" d="M271.6,78.1l1,0.6l-1-1.1l1-0.8l1.4,1.6l-0.8,0.7l0.3,0.2c-0.6,2.5-1.7,4.9-3.2,7c-1.6,2.1-3.8,3.8-6.2,4.9
					l-1.6-2.1c4.4-2,7-4.8,8-8.5h-9.5v-2.2h10.5L271.6,78.1z M273,77l1-0.8l1.2,1.6l-1,0.8L273,77z"/>
			</g>
			<g>
				<path class="st2" d="M321,83.7c1.1-0.8,2.1-1.8,3-2.9c0.8-1.1,1.5-2.3,2.1-3.5l2.3,1l-0.9,1.6h3.8l0.2-0.3l1.8,1.1
					c-0.7,1.8-1.7,3.6-2.8,5.2c0.5,0.4,1,0.8,1.4,1.2l-1.5,1.9c-0.3-0.3-0.5-0.5-0.7-0.7c-0.2-0.2-0.4-0.4-0.7-0.6
					c-1.6,1.8-3.5,3.1-5.8,3.9l-1.4-2.1c2-0.6,3.8-1.7,5.4-3.2c-0.7-0.6-1.5-1-2.3-1.5l1.5-1.7c0.8,0.4,1.6,0.9,2.3,1.4
					c0.6-0.7,1-1.5,1.3-2.3h-4c-1,1.3-2.1,2.4-3.4,3.4L321,83.7z"/>
				<path class="st2" d="M379.3,88.3c2-0.8,3.8-1.9,5.4-3.4c1.4-1.3,2.5-3,3.1-4.9h-7v-2.3h8.5l0.3-0.2l1.5,1.3
					c-0.8,1.8-1.6,3.5-2.6,5.2c1.7,1.4,3.2,2.8,4.7,4.3l-1.9,2c-1.2-1.6-2.7-3-4.3-4.3c-1.7,1.9-3.8,3.5-6.2,4.5L379.3,88.3z"/>
				<path class="st2" d="M439.1,84.7c2-2.1,3.6-4.6,4.5-7.3l2.4,0.7c-0.3,0.9-0.7,1.8-1.2,2.7h7.9v2.1h-3.8c-0.2,4.1-1.8,7-4.9,8.5
					l-1.7-1.8c2.7-1.2,4.3-3.9,4.1-6.8h-2.7c-0.7,1.2-1.6,2.4-2.6,3.4L439.1,84.7z"/>
				<path class="st2" d="M498.8,88.6c2-1.2,3.2-3.4,3.2-5.8v-4.5h2.4v3.8c0,1.6-0.3,3.3-0.9,4.8c-0.6,1.5-1.7,2.8-3,3.7L498.8,88.6z
					 M505.5,89.2l0.2-0.2V77.8h2.5v9.1c1.3-1.3,2.5-2.7,3.6-4.3l1.6,2.1c-1.7,2.3-3.7,4.4-6,6.1L505.5,89.2z"/>
			</g>
		</g>
		<g>
			<g>
				<g>
					<path class="st2" d="M182.4,57.9v9.5h-39.2V27.8h9.4v30.1H182.4z"/>
					<path class="st2" d="M194.6,67.3h-9.4V27.8h9.4L194.6,67.3z"/>
					<path class="st2" d="M225.8,67.3h-8.3l-20.1-39.6h10.2l14,27.9l13.9-27.9h10.2L225.8,67.3z"/>
					<path class="st2" d="M248.6,67.3V27.8h41v9.5H258v20.6h31.5v9.5H248.6z M264.7,42.8h24.8v9.5h-17.7L264.7,42.8z"/>
				</g>
				<g>
					<path class="st2" d="M298.1,27.8h39.2v9.5h-14.9v30.1h-9.4V37.2h-14.9V27.8z"/>
					<path class="st2" d="M381.7,35.7v31.6h-9.4V54h-8.8l-7.1-9.5h15.9v-5.3c-1.8-3.3-11.3-3.3-11.3-3.3s-9.6,0-11.4,3.3v28.2h-9.4
						V35.7c0.8-8.9,20.8-8.9,20.8-8.9S380.9,26.8,381.7,35.7z"/>
					<path class="st2" d="M394.5,52.3c-10.5,0-10.5-12.2-10.5-12.2s0-12.3,10.3-12.3h33.7v9.5h-32.3c-1.6,0-1.6,2.8-1.6,2.8
						s0,2.7,1.6,2.7h22.3c10.5,0,10.5,12.2,10.5,12.2s0,12.3-10.3,12.3h-33.8v-9.5h32.3c1.7,0,1.7-2.9,1.7-2.9s0-2.7-1.7-2.7
						L394.5,52.3z"/>
					<path class="st2" d="M462.6,27.8h11.6l-15.4,18.6l15.3,21h-11.5l-9.5-14l-11.6,14h-10.2V27.8h9.4v26.5L462.6,27.8z"/>
				</g>
			</g>
			<path class="st3" d="M494.7,28.1c-10.9,0-19.8,8.9-19.8,19.8c0,10.9,8.9,19.8,19.8,19.8c10.9,0,19.8-8.9,19.8-19.8
				C514.5,37,505.7,28.1,494.7,28.1z M498.2,58.6c-3.4,1.7-8-4.6-8-4.6l-3.8,2.3l-2.5-4.1l3.8-2.3c0,0-3.6-7-0.5-9.3l9.8-6l2.5,4.1
				l-8.3,5.1c-1,1.6,1.6,5.8,1.6,5.8s2.6,4.1,4.5,4l8.3-5.1l2.5,4.1L498.2,58.6z"/>
		</g>
	</g>
</g>
</svg>
