<?xml version="1.0" encoding="UTF-8"?><svg xmlns="http://www.w3.org/2000/svg" viewBox="0 0 20.25 18"><defs><style>.g{fill:#fff;}</style></defs><g id="a"/><g id="b"><g id="c"><g id="d"><path id="e" class="g" d="M18.56,0h-6.37l2.25,2.25h3.56V12.38H2.25V2.25h3.56L8.06,0H1.69C.76,0,0,.76,0,1.69V12.94c0,.93,.76,1.69,1.69,1.69h6.75l-.56,1.69h-2.53c-.47,.02-.83,.41-.81,.87,.02,.44,.37,.8,.81,.81H14.91c.47-.02,.83-.41,.81-.87-.02-.44-.37-.8-.81-.81h-2.53l-.56-1.69h6.75c.93,0,1.69-.76,1.69-1.69V1.69C20.25,.76,19.49,0,18.56,0Z"/><path id="f" class="g" d="M11.04,8.74h-1.82c-.3,0-.55-.24-.55-.55h0v-3.83h-2c-.25,0-.45-.2-.45-.45,0-.12,.05-.24,.13-.32L9.82,.13c.17-.17,.45-.17,.62,0l3.46,3.46c.18,.18,.18,.46,0,.64-.09,.09-.2,.13-.32,.13h-2v3.83c0,.3-.24,.55-.55,.55h0Z"/></g></g></g></svg>